<svg width="160" height="32" viewBox="0 0 160 32" fill="none" xmlns="http://www.w3.org/2000/svg">
<path fill-rule="evenodd" clip-rule="evenodd" d="M30.7925 29.947V32.0001H28.8087L30.7925 29.947ZM30.7925 23.4886V26.4306L26.2426 31.1407L23.5696 28.4293L20.121 32.0001H17.2792L23.5549 25.5032L26.2279 28.2137L30.7925 23.4886ZM30.7925 17.0303V19.9715L26.2112 24.7139L23.5383 22.0034L13.8824 32.0001H11.042L23.5245 19.0774L26.1965 21.7878L30.7925 17.0303ZM30.7925 10.5729V13.5141L26.1789 18.29L23.5069 15.5786L7.6432 32.0001H7.07337L4.68882 29.5822L2.35322 32.0001H0V31.4953L4.67413 26.6555L7.34709 29.366L23.4931 12.6525L26.1651 15.3633L30.7925 10.5729ZM30.7925 4.1155V7.05565L26.1485 11.8641L23.4755 9.15371L7.33045 25.8668L4.6575 23.1557L0 27.9782V25.0359L4.64369 20.2297L7.31576 22.9401L23.4608 6.22667L26.1338 8.93824L30.7925 4.1155ZM23.7207 0.0974353L26.1024 2.51339L28.4361 0.0974353H30.7925V0.598249L26.1162 5.43942L23.4431 2.72776L7.29912 19.4402L4.62705 16.7305L0 21.5198V18.5786L4.61227 13.8045L7.28434 16.5142L23.1429 0.0974353H23.7207ZM19.7455 0.0974353L7.26673 13.0152L4.59475 10.3047L0 15.0614V12.1202L4.58095 7.37776L7.25302 10.0893L16.9037 0.0974353H19.7455ZM13.5073 0.0974353L7.23638 6.58931L4.56333 3.87884L0 8.60412V5.66177L4.54864 0.952816L7.2216 3.66246L10.6652 0.0974353H13.5073ZM1.97773 0.0974353L0 2.14452V0.0974353H1.97773ZM63.4654 20.8379V24.8956C62.9705 25.5845 62.491 26.1716 62.0946 26.6512L62.031 26.7281C60.4749 28.6081 58.798 30.3646 57.1939 31.9848H54.3042C56.2985 30.0007 58.5186 27.7755 60.5081 25.3709L60.5709 25.2969C61.3965 24.2963 62.6193 22.8028 63.4654 20.8379ZM32.6729 20.8813C33.5635 22.948 34.7783 24.416 35.4775 25.2581L35.5883 25.3915C37.5093 27.7086 39.7674 29.9792 41.853 31.9848H38.9252C37.264 30.3391 35.5697 28.5629 34.0644 26.7466L33.9557 26.6154C33.6125 26.2031 33.1585 25.6535 32.6729 24.9735V20.8813ZM44.1448 5.12015C45.5409 5.12015 46.8568 5.40357 48.0669 5.96444C49.2709 5.40769 50.5917 5.12529 52 5.12529C52.289 5.12529 52.5803 5.13739 52.8649 5.16077C55.9899 5.4087 58.9914 7.34108 60.6954 10.2029C62.3898 13.0496 62.6555 16.468 61.423 19.5842C60.7249 21.3437 59.6473 22.6512 58.7804 23.7019L58.7068 23.7902C56.7233 26.1878 54.4386 28.4627 52.4215 30.4691L50.9007 31.9848H45.3398L44.4681 31.1566C42.1747 28.9809 39.5398 26.4031 37.3787 23.796L37.2718 23.6694C36.1001 22.2581 33.6653 19.3271 33.9557 14.8459C34.1196 12.3101 35.199 9.9296 36.9964 8.14255C38.6909 6.45205 40.9382 5.36707 43.161 5.1648C43.4828 5.13546 43.8141 5.12015 44.1448 5.12015ZM32.6729 28.8101C33.5939 29.8949 34.5664 30.9576 35.553 31.9848H32.7503C32.7251 31.9572 32.6985 31.9301 32.6729 31.9016V28.8101ZM63.4654 28.7338V31.8425C63.4216 31.8903 63.3784 31.9371 63.3351 31.9848H60.5446C61.5242 30.9556 62.5067 29.8684 63.4654 28.7338ZM44.1448 7.20079C43.8739 7.20079 43.6025 7.21308 43.3387 7.23747C41.5627 7.39894 39.7585 8.27577 38.3878 9.64315C36.9513 11.0706 36.0892 12.9673 35.9599 14.9841C35.7246 18.616 37.6444 20.9284 38.7926 22.3102L38.8996 22.4382C40.9942 24.9646 43.575 27.4883 45.8245 29.623L48.154 31.8356L51.0223 28.9768C53.0137 26.9944 55.2623 24.7563 57.1839 22.4339L57.249 22.3556C58.0275 21.412 58.9895 20.2455 59.566 18.7938C60.5513 16.3029 60.3394 13.5688 58.9863 11.2951C57.6136 8.98885 55.2082 7.43341 52.7087 7.23545C52.4618 7.21501 52.2263 7.20593 52 7.20593C50.7339 7.20593 49.5651 7.48733 48.5267 8.04306L48.0659 8.28879L47.605 8.04306C46.5608 7.48421 45.3958 7.20079 44.1448 7.20079ZM48.059 11.6499C48.9966 10.6623 50.3016 9.69615 52.5256 9.87486C54.2875 10.0152 55.9928 11.1276 56.9762 12.7795C57.944 14.4041 58.0874 16.2826 57.3812 18.0684C56.9487 19.1566 56.1554 20.1175 55.4563 20.9659L55.3888 21.0475C53.5423 23.2794 51.335 25.4761 49.3877 27.4131L48.115 28.6813L47.4197 28.0207C45.2233 25.9361 42.7061 23.4767 40.6929 21.0496L40.5803 20.9142C39.5526 19.6758 38.1444 17.9802 38.3141 15.3487C38.4063 13.9407 39.0123 12.6128 40.0213 11.6112C41.0108 10.6217 42.2954 9.98864 43.5436 9.87587C45.8164 9.6636 47.1882 10.6805 48.059 11.6499ZM44.1435 11.9293C44.0085 11.9293 43.8663 11.9352 43.719 11.9485C42.9315 12.0197 42.0698 12.4545 41.4128 13.1107C40.9528 13.567 40.392 14.3482 40.3183 15.488C40.2037 17.2691 41.1686 18.4322 42.103 19.557L42.217 19.6943C43.9543 21.7891 46.1078 23.9344 48.0836 25.8263C50.0641 23.8555 52.1059 21.8183 53.863 19.6943L53.9297 19.614C54.5613 18.8489 55.2133 18.0571 55.5232 17.2783C55.9791 16.1251 55.8888 14.9149 55.2671 13.8727C54.625 12.7928 53.4885 12.0379 52.3716 11.9495C50.5693 11.8072 49.7907 12.7227 48.8845 13.8026L47.96 14.8989L47.2167 13.8695C46.3079 12.6109 45.5488 11.9293 44.1435 11.9293ZM44.1448 0.593114C45.4989 0.593114 46.8188 0.783005 48.0707 1.15701C49.3221 0.786123 50.642 0.599258 52 0.599258C52.404 0.599258 52.808 0.615487 53.202 0.646845C57.1568 0.961985 60.9582 3.13294 63.4654 6.42564V10.4092C63.2438 9.90126 62.9929 9.40338 62.7048 8.9188C60.6121 5.40357 56.9116 3.02924 53.0471 2.72153C52.7029 2.69411 52.3508 2.6799 52 2.6799C50.7348 2.6799 49.5132 2.86676 48.3688 3.23554L48.0689 3.3331L47.7698 3.23554C46.6226 2.86282 45.4025 2.67376 44.1448 2.67376C43.7447 2.67376 43.3445 2.692 42.9561 2.72868C40.2028 2.97854 37.4357 4.30842 35.3638 6.37686C34.2184 7.51474 33.3134 8.84966 32.6729 10.3055V6.35247C33.0711 5.83543 33.5036 5.34158 33.9713 4.87635C36.3677 2.48579 39.5782 0.946673 42.7788 0.656106C43.2247 0.614387 43.6848 0.593114 44.1448 0.593114ZM63.3869 0.0820313L63.4654 0.142089V2.85154C62.3133 1.75337 61.0219 0.819682 59.6394 0.0820313H63.3869ZM36.4461 0.0820312C35.0821 0.805378 33.8065 1.71981 32.6729 2.79066V0.0891831C32.6761 0.0861573 32.679 0.0841401 32.6819 0.0820312H36.4461Z" fill="#FF0062"/>
<path fill-rule="evenodd" clip-rule="evenodd" d="M75.1443 9.59263V14.8962H79.8408C80.7738 14.8962 81.4735 14.7891 81.94 14.5748C82.7654 14.1998 83.1781 13.4587 83.1781 12.3516C83.1781 11.1551 82.7789 10.3516 81.9804 9.94085C81.5318 9.7087 80.859 9.59263 79.9619 9.59263H75.1443ZM80.8231 6.16406C82.2137 6.19085 83.2835 6.36049 84.0326 6.67299C84.7817 6.98549 85.4164 7.44531 85.9368 8.05246C86.3674 8.55246 86.7083 9.10602 86.9595 9.71317C87.2107 10.3203 87.3363 11.0123 87.3363 11.7891C87.3363 12.7266 87.0985 13.6484 86.6231 14.5547C86.1476 15.4609 85.3626 16.1016 84.2681 16.4766C85.1832 16.8426 85.8313 17.3627 86.2126 18.0368C86.5939 18.7109 86.7845 19.74 86.7845 21.1239V22.4498C86.7845 23.3516 86.8204 23.9632 86.8922 24.2846C86.9999 24.7935 87.251 25.1685 87.6458 25.4096V25.9051H83.0839C82.9583 25.4676 82.8686 25.115 82.8147 24.8471C82.7071 24.2935 82.6488 23.7266 82.6398 23.1462L82.6129 21.3114C82.5949 20.0525 82.3639 19.2132 81.9199 18.7935C81.4758 18.3739 80.6437 18.1641 79.4236 18.1641H75.1443V25.9051H71.0938V6.16406H80.8231ZM97.4009 18.8069C97.1587 18.9587 96.9142 19.0815 96.6675 19.1752C96.4208 19.269 96.0821 19.356 95.6515 19.4364L94.7903 19.5971C93.9828 19.74 93.4042 19.9141 93.0543 20.1194C92.4622 20.4676 92.1662 21.0078 92.1662 21.74C92.1662 22.3917 92.3478 22.8627 92.7112 23.1529C93.0745 23.4431 93.5163 23.5882 94.0367 23.5882C94.862 23.5882 95.6224 23.3471 96.3176 22.865C97.0129 22.3828 97.374 21.5034 97.4009 20.2266V18.8069ZM95.0729 17.0257C95.7816 16.9364 96.2885 16.8248 96.5935 16.6908C97.1407 16.4587 97.4144 16.0971 97.4144 15.606C97.4144 15.0078 97.2058 14.5949 96.7886 14.3672C96.3715 14.1395 95.7592 14.0257 94.9517 14.0257C94.0456 14.0257 93.4042 14.2489 93.0274 14.6953C92.7583 15.0257 92.5788 15.4721 92.4891 16.0346H88.7885C88.8692 14.7578 89.2281 13.7087 89.865 12.8873C90.8788 11.6016 92.6192 10.9587 95.0863 10.9587C96.6922 10.9587 98.1186 11.2757 99.3656 11.9096C100.613 12.5435 101.236 13.7399 101.236 15.4989V22.1953C101.236 22.6596 101.245 23.2221 101.263 23.8828C101.29 24.3828 101.366 24.7221 101.492 24.9007C101.617 25.0792 101.806 25.2266 102.057 25.3426V25.9051H97.8854C97.7687 25.6105 97.688 25.3337 97.6431 25.0748C97.5983 24.8158 97.5624 24.5212 97.5355 24.1908C97.0062 24.7623 96.3961 25.2489 95.7053 25.6507C94.88 26.1239 93.947 26.3605 92.9063 26.3605C91.5785 26.3605 90.4818 25.9833 89.6161 25.2288C88.7503 24.4743 88.3175 23.4051 88.3175 22.0212C88.3175 20.2266 89.0127 18.9275 90.4033 18.1239C91.1659 17.6864 92.2873 17.3739 93.7675 17.1864L95.0729 17.0257ZM110.278 11.3069H114.167L116.401 21.8203L118.689 11.3069H122.685L118.433 25.9051H114.49L112.189 15.2712L109.861 25.9051H105.878L101.76 11.3069H105.878L108.165 21.7801L110.278 11.3069ZM131.647 10.9587C133.163 10.9587 134.403 11.3538 135.367 12.144C136.332 12.9342 136.814 14.2444 136.814 16.0748V25.9051H132.885V17.0257C132.885 16.2578 132.781 15.6685 132.575 15.2578C132.198 14.5078 131.481 14.1328 130.422 14.1328C129.121 14.1328 128.228 14.6819 127.744 15.7801C127.493 16.3605 127.367 17.1016 127.367 18.0033V25.9051H123.545V11.3337H127.246V13.4632C127.74 12.7132 128.206 12.173 128.646 11.8426C129.435 11.2533 130.435 10.9587 131.647 10.9587ZM144.86 14.0658C143.972 14.0658 143.283 14.3426 142.794 14.8962C142.305 15.4498 141.998 16.1998 141.873 17.1462H147.834C147.771 16.1373 147.464 15.3717 146.912 14.8493C146.361 14.327 145.676 14.0658 144.86 14.0658ZM144.86 10.9185C146.08 10.9185 147.179 11.1462 148.157 11.6016C149.135 12.0569 149.942 12.7757 150.579 13.7578C151.153 14.6239 151.526 15.6283 151.696 16.7712C151.795 17.4409 151.835 18.4051 151.817 19.6641H141.778C141.832 21.1284 142.294 22.1551 143.164 22.7444C143.694 23.1105 144.331 23.2935 145.075 23.2935C145.865 23.2935 146.506 23.0703 147 22.6239C147.269 22.3828 147.507 22.048 147.713 21.6194H151.629C151.53 22.4855 151.077 23.365 150.27 24.2578C149.014 25.6775 147.255 26.3873 144.995 26.3873C143.129 26.3873 141.482 25.7891 140.056 24.5926C138.63 23.3962 137.916 21.4498 137.916 18.7533C137.916 16.2266 138.56 14.2891 139.847 12.9408C141.135 11.5926 142.806 10.9185 144.86 10.9185ZM151.614 14.1596V11.4408H153.66V7.36942H157.455V11.4408H159.836V14.1596H157.455V21.8739C157.455 22.4721 157.531 22.8449 157.683 22.9922C157.836 23.1395 158.302 23.2132 159.083 23.2132C159.2 23.2132 159.323 23.2109 159.453 23.2065C159.583 23.202 159.711 23.1953 159.836 23.1864V26.0391L158.02 26.106C156.208 26.1685 154.97 25.856 154.306 25.1685C153.875 24.731 153.66 24.0569 153.66 23.1462V14.1596H151.614Z" fill="white"/>
</svg>
