<?xml version="1.0" encoding="utf-8"?>
<!-- Generator: Adobe Illustrator 26.0.2, SVG Export Plug-In . SVG Version: 6.00 Build 0)  -->
<svg version="1.1" id="Layer_1" xmlns="http://www.w3.org/2000/svg" xmlns:xlink="http://www.w3.org/1999/xlink" x="0px" y="0px"
	 viewBox="0 0 1672.4 1133.9" style="enable-background:new 0 0 1672.4 1133.9;" xml:space="preserve">
<style type="text/css">
	.st0{fill:#0E2244;}
</style>
<path class="st0" d="M826.8,146.2l-0.1,0.2l-0.1,0.2L826.8,146.2z"/>
<path class="st0" d="M826.8,146.2l-0.1,0.2l-0.1,0.2L826.8,146.2z"/>
<path class="st0" d="M882.9,187.3l-0.2,0.1l-0.2,0.1L882.9,187.3z"/>
<path class="st0" d="M882.9,187.3l-0.2,0.1l-0.2,0.1L882.9,187.3z"/>
<path class="st0" d="M881.2,466.7c-7.4-3.7-31.4-15.3-61.3-27.3c-7.9-3.8-15.2-8.8-21.7-14.8l-1.1-1l-99.4,37.9
	c-2.6-7.8-11.3-32.9-24-62.7c-3.7-10.8-5.4-22.2-4.9-33.6l0.1-1.6l-100.1-44.8c3.7-7.4,15.3-31.4,27.3-61.3
	c4.8-9.9,11.4-18.8,19.3-26.3l1.2-1.1l-37.1-97c7.8-2.6,33-11.4,62.7-24c9.7-3.4,20-5.1,30.3-5c1,0,2,0,3.1,0.1l1.6,0.1L720.6,7
	c6.9,3.5,31,15.2,61.3,27.4c8.6,4.2,16.5,9.7,23.4,16.4l1.1,1.1l99.7-38.1c2.7,7.8,11.4,33,24,62.7c4,11.7,5.6,24.2,4.8,36.5
	l-0.1,1.7l100.3,44.9c-3.7,7.4-15.3,31.4-27.3,61.3c-4.2,8.6-9.8,16.6-16.5,23.5l-1.1,1.1l38.4,100.5c-7.8,2.6-33,11.4-62.7,24
	c-9.7,3.4-20,5-30.2,5l0,0c-3.8,0-7.5-0.2-11.3-0.7l-1.8-0.2L881.2,466.7z M821.4,414.3l4.4,2.6c2.4,1.4,4.8,2.7,7.3,3.8l33.4,14.9
	l31-69.2l-2-1.1c-17.9-9.1-31.5-24.7-38.1-43.6c-2.2-5.6-3.7-11.4-4.6-17.3l-0.3-2.2l-2.8,0.2c-1.2,0.1-2.4,0.2-3.5,0.4
	c-3.8,0.6-7.6,1.6-11.2,2.9c-3.6,1.4-7,3.1-10.3,5.2c-2,1.3-3.9,2.7-5.7,4.2l-1.8,1.5l1.4,1.9c4.9,6.3,9,13.2,12,20.6
	c10.3,30.5,20.6,55.1,23.8,62.7L821.4,414.3z M692.2,378.9c0.1,1,0.2,2,0.4,3.1c0.9,4.4,2.1,8.8,3.7,13l13,34.2l70.8-27l-1.3-2.4
	c-4.7-9.2-7.7-19.2-8.9-29.4c-1-14.3,1.5-28.7,7.3-41.9c1.4-3.1,2.9-6.1,4.7-9l1.4-2.3l-2.4-1.2l-0.7-0.4c-0.5-0.3-0.9-0.5-1.4-0.7
	c-3.5-1.6-7.2-2.8-10.9-3.6c-3.8-0.8-7.7-1.3-11.7-1.3l-2,0l-0.4,1.9c-1,4.9-2.6,9.7-4.5,14.3c-14.3,29-24.5,53.6-27.5,61.2
	l-30.3-13.6L692.2,378.9z M801,339.3c-1.7,3.7-3,7.6-4,11.6c-1.9,7.8-2.3,16-1.1,23.9c0.6,3.8,1.6,7.6,2.9,11.2
	c0.7,1.9,1.5,3.8,2.5,5.6l1,2l21.8-8.3l-13-34.2c-1.6-4.2-3.5-8.2-5.8-12l-2.4-4.1L801,339.3z M722.5,318.7
	c-0.8,0.4-1.7,0.9-2.5,1.4c-6.9,4.2-12.9,9.7-17.7,16.2c-2,2.7-3.7,5.7-5.2,8.7l-1.1,2.3l15.9,7.1l17.6-39.4L722.5,318.7z
	 M932.5,352.1l3.7,0.1l0.3,0l1,0c3.9,0,7.8-0.4,11.7-1.1c4.4-0.9,8.8-2.1,13-3.7l34.2-13.1l-27.7-72.7l-2.4,1.2
	c-8.7,4.2-17.9,6.9-27.5,7.9c0,0-2.3,0.3-6,0.3c-12.3,0-24.5-2.5-35.8-7.5c-3-1.3-6-2.9-8.9-4.6l-2.1-1.3l-1.2,2.1
	c-1,1.6-1.8,3.3-2.6,5.1c-1.6,3.5-2.8,7.2-3.6,10.9c-0.3,1.5-0.5,2.9-0.7,4.4l-0.3,2.1l2,0.6c3.1,0.8,6.1,1.9,9.1,3.2
	c28.9,14.3,53.5,24.4,61.2,27.5L932.5,352.1z M881.7,312.3c1.5,3.9,3.4,7.7,5.5,11.3c4.2,6.9,9.7,12.9,16.2,17.7
	c0.4,0.3,0.7,0.5,1.1,0.7l0.6,0.4l2.4,1.6l9.2-20.6l-37.1-16.6L881.7,312.3z M622.8,257l-0.5,0.7c-0.3,0.4-0.7,0.8-1,1.3
	c-2.5,3.7-4.7,7.7-6.5,11.8l-14.9,33.4l74.4,33.3l1-2.3c3.1-7.4,7.1-14.3,12.1-20.5c9.4-10.9,21.3-19.2,34.7-24.5
	c2.9-1.1,5.9-2.1,9-2.9l2.1-0.5l-0.3-2.1c0,0-0.1-0.7-0.1-0.9c-0.6-3.8-1.6-7.6-2.9-11.2c-1.4-3.6-3.1-7-5.2-10.3
	c-1-1.5-2-3-3.3-4.6l-1.4-1.8l-1.9,1.3c-5,3.5-10.4,6.4-16,8.7c-30.5,10.3-55.1,20.6-62.7,23.8l-13.8-36.2L622.8,257z M801.8,175.8
	c-2.2,1.9-3.7,3-3.7,3c-11.8,8.4-25.5,13.6-39.8,15.1l-2,0.2l-0.2,2c-0.2,2.2-0.4,3.4-0.4,3.5c-2.3,13.6-7.9,26.5-16.3,37.4
	l-1.2,1.5l1.2,1.5c0.6,0.8,1,1.3,1,1.3c8.6,12.1,13.9,26.3,15.3,41.1l0.2,2.1l2.1,0.1c2.1,0.1,4.2,0.3,6.3,0.6
	c11.7,2,22.8,6.4,32.7,12.9l1.5,1l1.4-1.2c2.2-1.9,3.7-3,3.7-3c13.7-9.8,30-15.2,46.8-15.6l1.9-0.1l0.4-1.9
	c2.3-11.9,7.1-23.2,14.2-33l1.1-1.6l-1.3-1.5c-2.2-2.5-3.4-4.2-3.4-4.2c-9.2-13-14.6-28.3-15.5-44.2l-0.1-2.2l-2.2-0.1
	c-3.8-0.2-6.1-0.6-6.1-0.6c-12.5-2.1-24.4-7-34.8-14.3l-1.6-1.1L801.8,175.8z M669.9,232.8c-3.1,0-6.2,0.2-9.3,0.7
	c-3.8,0.6-7.5,1.6-11.1,2.9l-2.3,0.9l8.5,22.2l34.2-13.1c2.3-0.9,4.6-1.9,7-3.1l4.5-2.2l-4.6-2.2c-4-1.8-8.1-3.2-12.3-4.3
	c-4-1-8-1.6-12.1-1.7C671.6,232.9,670.7,232.8,669.9,232.8L669.9,232.8z M918.3,232.6c-2.8,1.1-5.6,2.3-8.2,3.7l-4.8,2.5l5,2
	c3,1.2,6,2.2,9.1,3c4,1,8,1.6,12.1,1.7c0.8,0,1.7,0,2.5,0c3.1,0,6.2-0.2,9.3-0.7c3.8-0.6,7.6-1.6,11.2-2.9c1-0.4,1.9-0.8,2.9-1.2
	l2.7-1.2l-7.6-19.9L918.3,232.6z M927.5,142.7c-2.9,6.4-6.6,12.4-11,17.9c-9.4,10.9-21.3,19.3-34.7,24.5c-3,1.2-6.1,2.2-9.2,2.9
	l-2,0.5l0.2,2.5c0.1,1.2,0.2,2.5,0.4,3.7c0.6,3.8,1.6,7.6,2.9,11.2c1.4,3.6,3.1,7,5.2,10.3c1.6,2.4,3.4,4.7,5.3,6.9l1.5,1.7l1.8-1.3
	c5.7-4.2,11.8-7.7,18.3-10.3c30.6-10.3,55.1-20.6,62.7-23.8l12.3,32.2l2.6-4.1c2-3.1,3.8-6.4,5.3-9.8l14.9-33.4l-75.5-33.8
	L927.5,142.7z M671.2,207.4c12.3,0,24.5,2.5,35.8,7.5c4.2,1.9,8.2,4.1,12.1,6.6l2.1,1.4l1.3-2.1c1.4-2.1,2.6-4.3,3.6-6.6
	c1.6-3.5,2.8-7.2,3.6-10.9c0.6-2.7,0.9-5.4,1.1-8.2l0.2-2.1l-2.1-0.4c-5.4-1.1-10.6-2.7-15.6-4.8c-28.8-14.3-53.5-24.4-61.2-27.5
	l14.9-33.3l-5.3,0.7c-0.9,0.1-1.8,0.2-2.7,0.4c-4.4,0.8-8.8,2.1-13,3.7l-34.2,13.1l26.9,70.4l2.3-1c7.7-3.3,15.8-5.5,24.1-6.4
	C667.2,207.4,669.2,207.3,671.2,207.4L671.2,207.4z M703.3,109.5l2.3,1c7.4,3.1,14.4,7.2,20.7,12.2c10.9,9.4,19.3,21.3,24.5,34.7
	c1.5,3.8,2.6,7.6,3.5,11.6l0.5,2.3l2.3-0.4c3.3-0.6,6.6-1.5,9.8-2.7c3.6-1.4,7-3.1,10.3-5.2c2.2-1.4,4.3-3,6.3-4.7l1.7-1.5l-1.3-1.8
	c-4.3-5.7-7.8-12-10.6-18.6c-10.3-30.6-20.6-55.1-23.8-62.7l33-12.6l-4.1-2.6c-3.1-2-6.3-3.7-9.7-5.2l-33.4-14.9L703.3,109.5z
	 M685.1,150.3l33.4,14.9c0.8,0.4,1.6,0.7,2.5,1l6.5,2.6l-2.4-5.4c-1.2-2.8-2.6-5.5-4.1-8.1c-4.2-6.9-9.7-12.9-16.2-17.7
	c-2.8-2-5.8-3.8-8.9-5.3l-2.3-1.1L685.1,150.3z M822.6,73.6l1.2,2.4c4.2,8.7,6.9,18,8,27.6c1,14.3-1.5,28.7-7.3,41.9
	c-1.4,3.2-3,6.3-4.9,9.3l-1.3,2.1l2.2,1.2c1.7,1,3.1,1.7,4.5,2.3c3.5,1.6,7.2,2.8,10.9,3.6c3.8,0.8,7.8,1.3,11.7,1.3l0.6,0h1.9
	l0.7-1.8c1-3.8,2.2-7.6,3.8-11.2c14.3-29,24.5-53.6,27.5-61.2l30.4,13.6l-0.3-4.1c-0.2-2.5-0.5-4.9-0.9-7.3c-0.9-4.4-2.1-8.8-3.7-13
	l-13.1-34.2L822.6,73.6z M876,159.6l6.5-3.7l0.5-0.3c0.3-0.1,0.6-0.3,0.8-0.5c6.9-4.2,12.9-9.7,17.7-16.2c1.4-1.9,2.7-4,3.8-6
	l1.3-2.3l-14.7-6.6L876,159.6z M779.7,89.9l13,34.2c1.2,3.1,2.6,6.1,4.2,9.1l2.4,4.6l2-4.8c1.4-3.3,2.5-6.7,3.4-10.2
	c1.9-7.8,2.3-16,1.1-23.9c-0.6-3.8-1.6-7.6-2.9-11.2c-0.4-1-0.8-2-1.3-3l-1.2-2.7L779.7,89.9z"/>
<path class="st0" d="M896,265.8l-0.2-0.1l-0.2-0.1L896,265.8z"/>
<path class="st0" d="M896,265.8l-0.2-0.1l-0.2-0.1L896,265.8z"/>
<path class="st0" d="M855.2,322.7l-0.1-0.2l-0.1-0.2L855.2,322.7z"/>
<path class="st0" d="M855.2,322.7l-0.1-0.2l-0.1-0.2L855.2,322.7z"/>
<path class="st0" d="M775,327.6l0.1-0.2l0.1-0.2L775,327.6z"/>
<path class="st0" d="M775,327.6l0.1-0.2l0.1-0.2L775,327.6z"/>
<path class="st0" d="M721,288l0.2-0.1l0.2-0.1L721,288z"/>
<path class="st0" d="M721,288l0.2-0.1l0.2-0.1L721,288z"/>
<path class="st0" d="M707.9,212.6l0.2,0.1l0.2,0.1L707.9,212.6z"/>
<path class="st0" d="M707.9,212.6l0.2,0.1l0.2,0.1L707.9,212.6z"/>
<path class="st0" d="M753,156.3l0.1,0.2l0.1,0.2L753,156.3z"/>
<path class="st0" d="M753,156.3l0.1,0.2l0.1,0.2L753,156.3z"/>
<path class="st0" d="M14.1,639.5h100.5c84.7,0,143.3,58.2,143.3,134.1v0.8c0,75.9-58.6,134.8-143.3,134.8H14.1V639.5z M114.6,866
	c56.6,0,93.6-38.1,93.6-90.9v-0.8c0-52.8-37-91.7-93.6-91.7H61.4V866L114.6,866z"/>
<rect x="310.3" y="639.5" class="st0" width="47.4" height="269.7"/>
<path class="st0" d="M415.9,775.1v-0.8c-1.1-75.9,59.4-138.3,135.3-139.4c1.3,0,2.5,0,3.8,0c47,0,75.9,13.1,103.6,36.6l-30,35.8
	c-20.3-19.3-47.5-29.7-75.5-28.9c-49.7,0-87.4,43.5-87.4,95.2v0.8c0,55.5,36.6,96.3,91.7,96.3c23.3,0.3,46.1-6.9,65.1-20.4v-50.5
	h-69v-41.2h114.8v113.2c-31.2,27.1-71.2,42-112.5,42C471.4,913.7,415.9,853.6,415.9,775.1"/>
<polygon class="st0" points="732.4,639.5 776.4,639.5 920.8,825.9 920.8,639.5 967.4,639.5 967.4,909.1 927.7,909.1 779.1,717.3 
	779.1,909.1 732.4,909.1 "/>
<rect x="1039.5" y="639.5" class="st0" width="47.4" height="269.7"/>
<polygon class="st0" points="1236,683.4 1150.5,683.4 1150.5,639.5 1369.3,639.5 1369.3,683.4 1283.8,683.4 1283.8,909.1 
	1236,909.1 "/>
<polygon class="st0" points="1503.9,802.8 1396.8,639.5 1452.7,639.5 1528.2,758.9 1604.4,639.5 1658.7,639.5 1551.7,801.6 
	1551.7,909.1 1503.9,909.1 "/>
<path class="st0" d="M1425.2,1124.3c16.2,0,27.6-8.6,27.6-23.1v-0.2c0-12.8-8.4-18.7-24.7-22.7c-14.9-3.5-18.5-6.2-18.5-12.2v-0.2
	c0-5.1,4.6-9.2,12.6-9.2c7.7,0.3,15.1,3.1,21,8l7.3-10.3c-7.9-6.5-17.8-9.9-28.1-9.7c-15.4,0-26.4,9.2-26.4,22.4v0.2
	c0,14.3,9.3,19.1,25.7,23.1c14.4,3.3,17.5,6.3,17.5,11.8v0.2c0,5.8-5.3,9.7-13.7,9.7c-9.1-0.1-17.8-3.7-24.4-10.1l-8.2,9.7
	C1401.8,1120,1413.3,1124.4,1425.2,1124.3 M1328.5,1084.2v-26h19.8c10.1,0,16,4.5,16,12.8v0.2c0,7.8-6.2,12.9-15.9,12.9H1328.5z
	 M1315,1123.2h13.6v-27h17l19,27h16.1l-20.9-29.3c11-2.3,18.7-12.2,18.3-23.4v-0.2c0.2-6.2-2.1-12.2-6.4-16.7
	c-6.1-5.4-14.2-8.2-22.3-7.7H1315L1315,1123.2z M1256.7,1112c-14.6,0-26.4-11.9-26.3-26.5c0-0.3,0-0.6,0-0.9v-0.2
	c-0.6-14.4,10.5-26.6,24.9-27.3c0.4,0,0.8,0,1.1,0c14.6,0.1,26.4,12,26.3,26.7c0,0.3,0,0.6,0,0.8v0.2c0.6,14.4-10.5,26.5-24.9,27.2
	C1257.5,1112,1257.1,1112,1256.7,1112 M1256.5,1124.5c21.9,0.5,40-16.8,40.5-38.6c0-0.4,0-0.9,0-1.3v-0.2
	c-0.3-22.3-18.7-40.2-41-39.8c-22,0.3-39.6,18.1-39.8,40.1v0.2c-0.3,21.7,17,39.5,38.7,39.8
	C1255.4,1124.6,1256,1124.6,1256.5,1124.5 M1169.8,1123.2h13.7v-64.7h24.5v-12.6h-62.7v12.6h24.5V1123.2z M1102.9,1124.5
	c12,0.4,23.5-4.6,31.4-13.7l-8.7-8.8c-5.7,6.3-13.7,9.9-22.2,9.9c-14.4-0.3-25.8-12.2-25.5-26.6c0-0.3,0-0.6,0-0.8v-0.2
	c-0.7-14.4,10.4-26.6,24.7-27.3c0.3,0,0.5,0,0.8,0c8.2,0.2,16,3.6,21.7,9.6l8.7-10.1c-8-8.1-18.9-12.4-30.3-12
	c-21.6-0.4-39.5,16.7-39.9,38.3c0,0.5,0,1.1,0,1.6v0.2c-0.5,21.5,16.5,39.3,38,39.8C1102,1124.5,1102.5,1124.5,1102.9,1124.5
	 M990.6,1123.2h57.9v-12.1h-44.3v-20.8h38.8v-12.1h-38.8V1058h43.8v-12.1h-57.3L990.6,1123.2z M921,1084.2v-26h19.8
	c10.1,0,16,4.5,16,12.8v0.2c0,7.8-6.2,12.9-15.9,12.9H921z M907.5,1123.2H921v-27h17l19,27h16.1l-20.9-29.3
	c11-2.4,18.7-12.2,18.3-23.4v-0.2c0.2-6.2-2.1-12.2-6.4-16.7c-6.1-5.4-14.1-8.2-22.3-7.7h-34.5L907.5,1123.2z M869.9,1123.2h13.6
	v-77.3h-13.6V1123.2z M808.2,1058.2c14-0.8,26,9.9,26.8,23.9c0,0.8,0.1,1.6,0,2.4v0.2c0.5,13.9-10.4,25.6-24.3,26.1
	c-0.9,0-1.7,0-2.6,0H793v-52.6L808.2,1058.2z M779.4,1123.2h28.8c21.3,1.3,39.7-14.9,41-36.2c0.1-0.8,0.1-1.6,0.1-2.4v-0.2
	c0-21.3-17.2-38.5-38.5-38.5c-0.9,0-1.7,0-2.6,0.1h-28.8L779.4,1123.2z M679.8,1123.2H734v-12.4h-40.7v-65h-13.6L679.8,1123.2z
	 M611.3,1092.5l13.3-30.9l13.4,30.9H611.3z M584.4,1123.2h13.9l8-18.7h36.6l7.8,18.7H665l-34-77.9h-12.6L584.4,1123.2z
	 M522.4,1084.2v-26h19.8c10.1,0,16,4.5,16,12.8v0.2c0,7.8-6.2,12.9-15.9,12.9H522.4z M508.8,1123.2h13.6v-27h17l19,27h16.1
	l-20.9-29.3c11-2.3,18.7-12.2,18.3-23.4v-0.2c0.2-6.2-2.1-12.2-6.4-16.7c-6.1-5.4-14.2-8.2-22.3-7.7h-34.5L508.8,1123.2z
	 M431.5,1123.2h57.9v-12.1H445v-20.8h38.8v-12.1H445V1058h43.7v-12.1h-57.3L431.5,1123.2z M340.9,1123.2h13.4v-55l42.7,55h11.4
	v-77.3h-13.4v53.5l-41.4-53.5h-12.6L340.9,1123.2z M285.6,1124.4c20.2,0,33.3-11.6,33.3-34.7v-43.9h-13.6v44.5
	c0,14.2-7.4,21.4-19.5,21.4c-12.2,0-19.6-7.6-19.6-22v-44h-13.6v44.5C252.7,1112.8,265.5,1124.4,285.6,1124.4 M178.1,1123.2h13.6
	v-31.5h39v-12.4h-39v-21.1h44v-12.4h-57.5L178.1,1123.2z"/>
</svg>
