<?xml version="1.0" encoding="UTF-8"?><svg id="Layer_1" xmlns="http://www.w3.org/2000/svg" viewBox="0 0 711.79 148.76"><defs><style>.cls-1{fill:#023a45;stroke-width:0px;}</style></defs><path class="cls-1" d="M38.53,113.12c-2.32,0-4.69-.12-7.05-.36-1.26-.11-2.6-.28-4.2-.54-9.88-1.57-19.76-5.38-26.49-10.2l-.79-21.57,1.14-.21c5.31,14.1,13.63,23.48,24.74,27.89,1.36.55,2.82,1.04,4.34,1.44,3.59.95,7.46,1.43,11.49,1.43,1.42,0,2.89-.11,4.37-.33,1.4-.22,2.67-.51,3.88-.89,9.73-2.97,15.78-10.74,15.78-20.29,0-8.9-5.79-16.02-18.23-22.43-1.18-.6-2.38-1.18-3.57-1.72-2.62-1.21-5.27-2.31-7.29-3.14l-4.02-1.62C14.82,53.49,2.22,47.13,2.22,29.97,2.22,11.76,17.28,0,40.59,0c14.19,0,24.45,3.87,30.61,7.16l.63,17.94-1.01.3C64.14,9.97,51.95,1.82,35.52,1.82c-14.24,0-24.18,8.77-24.18,21.32,0,14.52,15.05,20.69,28.33,26.14l1.7.7.06.05h.08s.08.03.08.03c1.26.5,2.51.99,3.75,1.5,1.56.63,3.1,1.26,4.6,1.92,1.23.53,2.45,1.08,3.63,1.64,10.76,5.03,21.75,12.11,21.75,26.44,0,16.69-12.73,26.35-24.63,29.81-1.22.36-2.49.67-3.79.92-2.78.54-5.6.82-8.37.82Z"/><path class="cls-1" d="M41.72,106.41c-4.3,0-8.34-.6-12-1.77-.66-3.75-.99-7.71-.99-11.79,0-9.46,2.05-18.35,6.09-26.41,2.14.87,4.85,2,7.53,3.24-.96,4.15-1.48,8.69-1.53,13.49-.08,7.68,1.11,15.65,3.43,23.1-.84.09-1.69.14-2.53.14Z"/><path class="cls-1" d="M120.67,62.32c-1.75-3.98-4.2-7.65-7.28-10.92-1.29-1.38-2.71-2.69-4.21-3.9-1.05-.86-2.19-1.69-3.39-2.47-.26-.17-.53-.34-.79-.51l-.47-.29c-4.12-2.49-8.65-4.26-13.46-5.28-1.31-.28-2.62-.5-3.9-.65-1.84-.23-3.76-.35-5.71-.35-11.71,0-21.68,4.03-28.87,11.66-1.06-.46-2.12-.92-3.19-1.36,10.08-8.13,22.74-12.42,36.66-12.42h.02c.34,0,.68,0,1.02.02,1.25,0,2.51.05,3.87.14,4.34.27,8.94.91,13.29,1.86,1.31.28,2.6.59,3.85.92,3.3.86,6.39,1.91,8.92,3.02,1.62.71,2.97,1.42,4.03,2.11l.62,18.2-.99.2Z"/><path class="cls-1" d="M134.49,109.59c14.12-3.85,21.59-14.03,21.59-29.45,0-19.39-10.76-30.93-30.32-32.52l-.08-2.44c11.1-2,17.71-9.88,17.71-21.14,0-13.98-9.99-22.33-26.72-22.33h-12.72v31.38c-4.17-.84-8.52-1.41-12.61-1.66v-11.13c0-12.86-1.47-17.17-6.5-18.8V0h37.7c23.18,0,34.93,7.1,34.93,21.11,0,7.29-3.3,20.13-25.4,24.2l.05.72c23.63,1.16,37.85,12.39,38.03,30.05.32,18.36-13,31.67-35.66,35.66v-2.16Z"/><path class="cls-1" d="M84.84,113.12v-1.48c5.04-1.63,6.5-5.94,6.5-18.82v-49.09c4.56,1.1,8.8,2.97,12.61,5.55v47.6c0,11.94,1.56,14.52,8.81,14.52h.48c.04.52.07,1.08.08,1.71h-28.49Z"/><path class="cls-1" d="M86.68,148.76c-25.22,0-44.56-11.37-53.15-31.22,1.68.12,3.36.18,5,.18,3.28,0,6.59-.35,9.86-1.03,9.25,18.83,24.98,29.62,43.21,29.62,11.34,0,22.22-5.95,26.47-14.46l.04-.08-.15-18.84c0-.71,0-1.39-.03-2.04-.01-.86-.05-1.68-.1-2.44-.11-1.54-.28-2.82-.54-3.92-.94-3.97-3.09-6.09-7.41-7.24v-1.25h27.99v1.25c-4.32,1.16-6.47,3.27-7.41,7.24-.25,1.1-.43,2.38-.54,3.92-.01.16-.03.32-.03.5v18.96c-8.84,12.28-26.59,20.85-43.22,20.85Z"/><path class="cls-1" d="M198.87,41.8h1.68c.21,1.43.61,2.73,1.21,3.87.59,1.15,1.33,2.12,2.23,2.92.89.8,1.93,1.41,3.1,1.84,1.17.43,2.44.65,3.8.65,2.25,0,4.02-.56,5.33-1.67,1.3-1.12,1.96-2.63,1.96-4.54,0-.8-.13-1.53-.39-2.2-.26-.67-.69-1.32-1.3-1.94-.61-.62-1.42-1.24-2.44-1.84s-2.3-1.26-3.85-1.96c-1.88-.86-3.46-1.69-4.73-2.49-1.27-.8-2.29-1.63-3.05-2.49-.76-.86-1.3-1.78-1.62-2.75s-.48-2.08-.48-3.32c0-1.47.25-2.82.75-4.06.5-1.24,1.21-2.32,2.12-3.23.91-.91,1.99-1.61,3.23-2.1,1.24-.49,2.61-.74,4.1-.74,1.33,0,2.58.22,3.73.67s2.32,1.16,3.5,2.15l1.18-2.15h1.05l.5,9.51h-1.69c-.73-2.61-1.78-4.56-3.16-5.83-1.38-1.27-3.04-1.91-4.99-1.91s-3.32.48-4.42,1.43c-1.09.96-1.64,2.25-1.64,3.87,0,.76.12,1.46.36,2.08.24.62.64,1.21,1.18,1.77.55.56,1.26,1.12,2.14,1.67.88.56,1.97,1.14,3.28,1.74,2.25,1.05,4.11,2.03,5.6,2.94,1.49.91,2.67,1.82,3.55,2.72.88.91,1.5,1.86,1.87,2.87s.55,2.13.55,3.37c0,1.59-.3,3.06-.91,4.4-.61,1.34-1.46,2.49-2.55,3.44-1.09.96-2.4,1.7-3.91,2.22-1.52.52-3.19.79-5.01.79s-3.29-.25-4.67-.76-2.78-1.37-4.21-2.58l-1.27,2.34h-1.05l-.68-10.71Z"/><path class="cls-1" d="M262.88,25.36h-1.87c-.09-1.37-.3-2.52-.64-3.44-.34-.92-.81-1.65-1.43-2.17-.62-.53-1.4-.9-2.34-1.12-.94-.22-2.06-.33-3.37-.33-1.12,0-2.03.02-2.71.07-.68.05-1.21.14-1.57.26-.36.13-.6.28-.7.45-.11.18-.16.41-.16.69v25.57c0,1.02.07,1.9.2,2.63.14.73.41,1.33.82,1.79.41.46,1,.81,1.78,1.05.77.24,1.8.38,3.07.41v1.82h-17.21v-1.82c1.28-.03,2.31-.17,3.1-.41.79-.24,1.39-.59,1.8-1.05.41-.46.68-1.06.82-1.79.14-.73.2-1.61.2-2.63v-25.57c0-.29-.05-.52-.16-.69-.11-.17-.32-.33-.64-.45-.32-.13-.77-.21-1.34-.26-.58-.05-1.35-.07-2.32-.07-1.18,0-2.28.05-3.3.14-1.02.1-1.9.38-2.64.84-.74.46-1.34,1.17-1.8,2.13-.46.96-.7,2.28-.73,3.97h-1.69v-9.13h34.37l.46,9.13Z"/><path class="cls-1" d="M284.37,39.7h-12.15c-.52,1.31-.96,2.46-1.32,3.46s-.66,1.87-.89,2.6c-.23.73-.39,1.36-.48,1.87-.09.51-.14.92-.14,1.24,0,.89.27,1.51.82,1.84.55.34,1.46.5,2.73.5v1.82h-11.06v-1.82c.7-.1,1.3-.22,1.8-.38.5-.16.94-.38,1.32-.67.38-.29.71-.66,1-1.12.29-.46.57-1.03.84-1.7l11.84-31.12h1.96l10.33,26.96c.7,1.79,1.3,3.21,1.82,4.28.52,1.07,1.02,1.87,1.5,2.41.48.54,1.01.89,1.57,1.05.56.16,1.24.24,2.03.24v1.86h-14.84v-1.86c1.61,0,2.72-.16,3.32-.48.61-.32.91-.84.91-1.58,0-.32-.02-.61-.05-.88-.03-.27-.08-.57-.16-.88-.08-.32-.18-.68-.32-1.07-.14-.4-.31-.87-.52-1.41l-1.87-5.16ZM273.12,37.31h10.38l-5.05-14.1-5.33,14.1Z"/><path class="cls-1" d="M330.71,53.51l-21.62-29.92h-.18v20.41c0,1.59.05,2.85.16,3.78.11.93.32,1.64.64,2.15.32.51.77.84,1.37,1,.59.16,1.37.26,2.34.29v1.82h-12.25v-1.82c1.06-.03,1.92-.13,2.57-.31.65-.17,1.16-.5,1.52-.98.36-.48.61-1.15.73-2.03.12-.88.18-2.06.18-3.56v-19.41c0-1.34-.05-2.45-.16-3.32s-.32-1.57-.64-2.08c-.32-.51-.78-.87-1.39-1.07-.61-.21-1.4-.34-2.37-.41v-1.82h9.01l19.89,27.87h.18v-18.83c0-1.56-.05-2.81-.16-3.75s-.32-1.66-.64-2.18c-.32-.51-.77-.84-1.37-1-.59-.16-1.37-.25-2.34-.29v-1.82h12.25v1.82c-1.06.03-1.92.14-2.57.31-.65.17-1.16.5-1.53.98s-.61,1.16-.73,2.06c-.12.89-.18,2.07-.18,3.54v28.58h-2.73Z"/><path class="cls-1" d="M373.46,53.03h-29.41v-1.82c1.06-.03,1.92-.13,2.57-.29.65-.16,1.16-.43,1.52-.81.36-.38.61-.92.73-1.62.12-.7.18-1.61.18-2.73v-22.27c0-1.11-.05-2.01-.16-2.7s-.32-1.23-.64-1.63c-.32-.4-.78-.67-1.39-.81-.61-.14-1.4-.25-2.37-.31v-1.82h13.84v1.82c-.97.03-1.75.13-2.34.29-.59.16-1.05.45-1.37.86-.32.41-.53.99-.64,1.72-.11.73-.16,1.71-.16,2.92v20.6c0,1.34.13,2.43.39,3.27.26.84.7,1.5,1.32,1.96.62.46,1.45.78,2.48.96,1.03.18,2.34.26,3.91.26,1.73,0,3.19-.1,4.37-.31,1.18-.21,2.18-.57,2.98-1.1.8-.52,1.44-1.26,1.91-2.2.47-.94.87-2.16,1.21-3.66h1.73l-.68,9.42Z"/><path class="cls-1" d="M388.75,32.81c1.64,0,3.01-.1,4.12-.31s1.99-.53,2.64-.98c.65-.45,1.12-1.02,1.41-1.72.29-.7.43-1.53.43-2.49h1.59v13.05h-1.59c0-.96-.13-1.79-.39-2.49-.26-.7-.71-1.28-1.37-1.74-.65-.46-1.53-.81-2.64-1.05-1.11-.24-2.51-.36-4.21-.36v10.8c0,1.05.12,1.92.36,2.6s.66,1.24,1.25,1.67c.59.43,1.37.73,2.34.91.97.18,2.17.26,3.6.26,1.61,0,2.97-.12,4.1-.36,1.12-.24,2.06-.65,2.82-1.22.76-.57,1.37-1.33,1.82-2.27.46-.94.84-2.11,1.14-3.51h1.73l-.68,9.42h-28.27v-1.82c1.06-.03,1.92-.13,2.57-.29.65-.16,1.16-.43,1.52-.81.36-.38.61-.92.73-1.62.12-.7.18-1.61.18-2.73v-22.27c0-1.11-.05-2.01-.16-2.7s-.32-1.23-.64-1.63c-.32-.4-.78-.67-1.39-.81-.61-.14-1.4-.25-2.37-.31v-1.82h26.31l.41,8.41h-1.59c-.18-1.27-.48-2.32-.89-3.13s-.97-1.46-1.68-1.94-1.62-.81-2.71-1-2.41-.29-3.96-.29h-5.78c-.52,0-.77.27-.77.81v13.72Z"/><path class="cls-1" d="M416.98,22.16c-.46-.83-.88-1.51-1.28-2.03-.39-.53-.8-.95-1.21-1.27s-.84-.53-1.3-.65c-.46-.11-1-.17-1.64-.17v-1.82h14.34v1.82c-1.52,0-2.59.12-3.21.36-.62.24-.93.66-.93,1.27,0,.67.35,1.62,1.05,2.87l7.06,12.67h.18l5.14-9.08c.97-1.72,1.66-3.08,2.07-4.06.41-.99.61-1.79.61-2.39s-.22-1.03-.66-1.27c-.44-.24-1.21-.36-2.3-.36v-1.82h10.42v1.82c-.64,0-1.21.1-1.71.29-.5.19-1.02.57-1.57,1.15-.55.57-1.15,1.37-1.8,2.39-.65,1.02-1.45,2.36-2.39,4.01l-7.01,12.43v5.69c0,1.56.05,2.81.16,3.75s.33,1.67.68,2.17c.35.51.85.85,1.5,1.03.65.18,1.52.26,2.62.26v1.82h-14.75v-1.82c1.09,0,1.97-.09,2.62-.26.65-.17,1.15-.51,1.5-1s.58-1.19.71-2.08c.12-.89.18-2.07.18-3.54v-5.83l-9.1-16.35Z"/><path class="cls-1" d="M479.57,53.51c-2.58,0-4.9-.43-6.97-1.29-2.06-.86-3.82-2.08-5.28-3.66-1.46-1.58-2.57-3.5-3.35-5.76-.77-2.26-1.16-4.78-1.16-7.55s.43-5.55,1.28-7.93c.85-2.39,2.04-4.45,3.57-6.17,1.53-1.72,3.37-3.05,5.51-3.99s4.5-1.41,7.08-1.41c1.82,0,3.54.27,5.14.81,1.61.54,3.35,1.42,5.23,2.63l.96-2.96h1.59l-.59,10.99h-2.19c0-1.56-.28-2.91-.84-4.04-.56-1.13-1.3-2.06-2.21-2.8-.91-.73-1.95-1.28-3.12-1.63-1.17-.35-2.36-.53-3.57-.53-1.85,0-3.5.38-4.96,1.15-1.46.76-2.69,1.86-3.69,3.3-1,1.43-1.77,3.19-2.3,5.26-.53,2.07-.8,4.41-.8,7.03,0,5.13,1.02,9.07,3.05,11.83,2.03,2.76,4.98,4.14,8.83,4.14,1.46,0,2.76-.18,3.91-.55,1.15-.37,2.13-.86,2.94-1.48.8-.62,1.41-1.34,1.82-2.15s.61-1.66.61-2.56c0-1.85-.36-3.1-1.07-3.75s-1.87-.98-3.48-.98v-1.82h12.93v1.82c-.73,0-1.34.06-1.82.19-.49.13-.87.36-1.16.69-.29.33-.48.77-.59,1.31s-.16,1.23-.16,2.06v5.35c-.58,0-1.1.02-1.57.07-.47.05-.96.16-1.48.33-.52.18-1.08.42-1.71.72-.62.3-1.36.71-2.21,1.22-1.06.64-2.28,1.15-3.66,1.53-1.38.38-2.89.57-4.53.57Z"/><path class="cls-1" d="M513.35,44c0,1.59.06,2.85.18,3.78.12.93.36,1.64.7,2.15.35.51.85.84,1.5,1,.65.16,1.51.26,2.57.29v1.82h-14.75v-1.82c1.06-.03,1.92-.13,2.57-.31.65-.17,1.16-.5,1.52-.98.36-.48.61-1.15.73-2.03.12-.88.18-2.06.18-3.56v-19.41c0-1.34-.05-2.45-.16-3.32s-.32-1.57-.64-2.08c-.32-.51-.78-.87-1.39-1.07-.61-.21-1.4-.34-2.37-.41v-1.82h13.84v1.82c-.97.03-1.75.16-2.34.38-.59.22-1.05.6-1.37,1.12-.32.52-.53,1.25-.64,2.17-.11.93-.16,2.1-.16,3.54v18.74Z"/><path class="cls-1" d="M523.96,53.03v-1.82c1.18-.03,2.13-.13,2.85-.29.71-.16,1.26-.43,1.64-.81.38-.38.64-.92.77-1.62.14-.7.2-1.61.2-2.73v-22.27c0-1.11-.05-2.01-.16-2.7s-.32-1.23-.64-1.63c-.32-.4-.78-.67-1.39-.81-.61-.14-1.4-.25-2.37-.31v-1.82h13.61c4.1,0,7.28.76,9.56,2.29,2.28,1.53,3.41,3.68,3.41,6.45,0,2.1-.63,3.82-1.89,5.16-1.26,1.34-3.26,2.44-5.99,3.3v.19c.94.1,1.76.21,2.46.34s1.32.28,1.87.45c.55.18,1.05.39,1.52.65.47.26.93.54,1.39.86,2.7,2.01,4.05,4.53,4.05,7.55,0,1.69-.45,3.26-1.34,4.71-.9,1.45-2.15,2.59-3.76,3.42-.52.29-1.05.52-1.59.69-.55.18-1.18.32-1.91.43s-1.57.19-2.53.24c-.96.05-2.09.07-3.39.07h-16.39ZM536.75,32.48c.94,0,1.73-.02,2.37-.05s1.18-.09,1.64-.17c.45-.08.86-.19,1.21-.33.35-.14.7-.34,1.07-.6.97-.64,1.66-1.4,2.07-2.29.41-.89.61-2.06.61-3.49,0-2.52-.58-4.32-1.75-5.42s-3-1.65-5.49-1.65h-3.5c-.52,0-.77.27-.77.81v13.19h2.55ZM540.48,50.98c5.49,0,8.24-2.47,8.24-7.41,0-3.6-1.41-6.12-4.23-7.55-.49-.22-.96-.41-1.41-.57s-.99-.28-1.59-.36c-.61-.08-1.33-.14-2.16-.17s-1.86-.05-3.07-.05h-2.05v10.66c0,1.94.48,3.34,1.46,4.18.97.84,2.58,1.27,4.82,1.27Z"/><path class="cls-1" d="M560.42,53.03v-1.82c1.18-.03,2.13-.13,2.85-.29.71-.16,1.26-.43,1.64-.81.38-.38.64-.92.77-1.62.14-.7.2-1.61.2-2.73v-22.27c0-1.11-.05-2.01-.16-2.7s-.32-1.23-.64-1.63c-.32-.4-.78-.67-1.39-.81-.61-.14-1.4-.25-2.37-.31v-1.82h13.61c4.1,0,7.28.76,9.56,2.29,2.28,1.53,3.41,3.68,3.41,6.45,0,2.1-.63,3.82-1.89,5.16-1.26,1.34-3.26,2.44-5.99,3.3v.19c.94.1,1.76.21,2.46.34s1.32.28,1.87.45c.55.18,1.05.39,1.52.65.47.26.93.54,1.39.86,2.7,2.01,4.05,4.53,4.05,7.55,0,1.69-.45,3.26-1.34,4.71-.9,1.45-2.15,2.59-3.76,3.42-.52.29-1.05.52-1.59.69-.55.18-1.18.32-1.91.43s-1.57.19-2.53.24c-.96.05-2.09.07-3.39.07h-16.39ZM573.21,32.48c.94,0,1.73-.02,2.37-.05s1.18-.09,1.64-.17c.45-.08.86-.19,1.21-.33.35-.14.7-.34,1.07-.6.97-.64,1.66-1.4,2.07-2.29.41-.89.61-2.06.61-3.49,0-2.52-.58-4.32-1.75-5.42s-3-1.65-5.49-1.65h-3.5c-.52,0-.77.27-.77.81v13.19h2.55ZM576.95,50.98c5.49,0,8.24-2.47,8.24-7.41,0-3.6-1.41-6.12-4.23-7.55-.49-.22-.96-.41-1.41-.57s-.99-.28-1.59-.36c-.61-.08-1.33-.14-2.16-.17s-1.86-.05-3.07-.05h-2.05v10.66c0,1.94.48,3.34,1.46,4.18.97.84,2.58,1.27,4.82,1.27Z"/><path class="cls-1" d="M616.96,15.75c2.67,0,5.16.49,7.47,1.48,2.31.99,4.31,2.34,6.01,4.06,1.7,1.72,3.03,3.75,4.01,6.07.97,2.33,1.46,4.84,1.46,7.55s-.49,5-1.48,7.27c-.99,2.26-2.33,4.23-4.03,5.9-1.7,1.67-3.7,3-6.01,3.97-2.31.97-4.78,1.46-7.42,1.46s-5.11-.48-7.42-1.46c-2.31-.97-4.31-2.29-6.01-3.97-1.7-1.67-3.04-3.64-4.03-5.9s-1.48-4.68-1.48-7.27c0-2.71.48-5.23,1.46-7.55.97-2.33,2.31-4.35,4.01-6.07,1.7-1.72,3.7-3.07,6.01-4.06,2.31-.99,4.8-1.48,7.47-1.48ZM616.96,50.88c2,0,3.8-.37,5.4-1.1,1.59-.73,2.96-1.79,4.1-3.15,1.14-1.37,2.01-3.04,2.62-5,.61-1.96.91-4.15.91-6.57,0-2.55-.3-4.85-.91-6.91-.61-2.06-1.47-3.81-2.6-5.26-1.12-1.45-2.49-2.56-4.1-3.35s-3.41-1.17-5.42-1.17-3.81.39-5.42,1.17-2.97,1.9-4.1,3.35c-1.12,1.45-1.99,3.2-2.6,5.26-.61,2.06-.91,4.36-.91,6.91s.3,4.61.91,6.57c.61,1.96,1.47,3.63,2.6,5,1.12,1.37,2.49,2.42,4.1,3.15s3.41,1.1,5.42,1.1Z"/><path class="cls-1" d="M671.32,53.51l-21.62-29.92h-.18v20.41c0,1.59.05,2.85.16,3.78.11.93.32,1.64.64,2.15.32.51.77.84,1.37,1,.59.16,1.37.26,2.34.29v1.82h-12.25v-1.82c1.06-.03,1.92-.13,2.57-.31.65-.17,1.16-.5,1.52-.98.36-.48.61-1.15.73-2.03.12-.88.18-2.06.18-3.56v-19.41c0-1.34-.05-2.45-.16-3.32s-.32-1.57-.64-2.08c-.32-.51-.78-.87-1.39-1.07-.61-.21-1.4-.34-2.37-.41v-1.82h9.01l19.89,27.87h.18v-18.83c0-1.56-.05-2.81-.16-3.75-.11-.94-.32-1.66-.64-2.18-.32-.51-.77-.84-1.37-1-.59-.16-1.37-.25-2.34-.29v-1.82h12.25v1.82c-1.06.03-1.92.14-2.57.31-.65.17-1.16.5-1.53.98s-.61,1.16-.73,2.06c-.12.89-.18,2.07-.18,3.54v28.58h-2.73Z"/><path class="cls-1" d="M684.97,41.8h1.68c.21,1.43.61,2.73,1.21,3.87.59,1.15,1.33,2.12,2.23,2.92.89.8,1.93,1.41,3.1,1.84,1.17.43,2.44.65,3.8.65,2.25,0,4.02-.56,5.33-1.67,1.3-1.12,1.96-2.63,1.96-4.54,0-.8-.13-1.53-.39-2.2-.26-.67-.69-1.32-1.3-1.94-.61-.62-1.42-1.24-2.44-1.84s-2.3-1.26-3.85-1.96c-1.88-.86-3.46-1.69-4.73-2.49-1.27-.8-2.29-1.63-3.05-2.49-.76-.86-1.3-1.78-1.62-2.75s-.48-2.08-.48-3.32c0-1.47.25-2.82.75-4.06.5-1.24,1.21-2.32,2.12-3.23.91-.91,1.99-1.61,3.23-2.1,1.24-.49,2.61-.74,4.1-.74,1.33,0,2.58.22,3.73.67s2.32,1.16,3.5,2.15l1.18-2.15h1.05l.5,9.51h-1.69c-.73-2.61-1.78-4.56-3.16-5.83-1.38-1.27-3.04-1.91-4.99-1.91s-3.32.48-4.42,1.43c-1.09.96-1.64,2.25-1.64,3.87,0,.76.12,1.46.36,2.08.24.62.64,1.21,1.18,1.77.55.56,1.26,1.12,2.14,1.67.88.56,1.97,1.14,3.28,1.74,2.25,1.05,4.11,2.03,5.6,2.94,1.49.91,2.67,1.82,3.55,2.72.88.91,1.5,1.86,1.87,2.87.36,1,.55,2.13.55,3.37,0,1.59-.3,3.06-.91,4.4-.61,1.34-1.46,2.49-2.55,3.44-1.09.96-2.4,1.7-3.91,2.22-1.52.52-3.19.79-5.01.79s-3.29-.25-4.67-.76-2.78-1.37-4.21-2.58l-1.27,2.34h-1.05l-.68-10.71Z"/><path class="cls-1" d="M196.32,132.2v-3.06c1.99-.05,3.59-.21,4.79-.48,1.2-.27,2.12-.72,2.76-1.37.64-.64,1.07-1.56,1.3-2.73s.34-2.71.34-4.59v-37.5c0-1.88-.09-3.39-.27-4.55s-.54-2.06-1.07-2.74c-.54-.67-1.32-1.13-2.34-1.37-1.02-.24-2.35-.41-3.99-.52v-3.06h22.91c6.9,0,12.26,1.29,16.09,3.86,3.83,2.57,5.75,6.2,5.75,10.86,0,3.54-1.06,6.44-3.18,8.69-2.12,2.25-5.48,4.1-10.08,5.55v.32c1.58.16,2.96.35,4.14.56,1.17.21,2.22.47,3.14.76s1.77.66,2.57,1.09c.79.43,1.57.91,2.34,1.45,4.55,3.38,6.82,7.62,6.82,12.71,0,2.84-.75,5.49-2.26,7.93-1.51,2.44-3.61,4.36-6.32,5.75-.87.48-1.76.87-2.68,1.17-.92.3-1.99.54-3.22.72-1.23.19-2.64.32-4.25.4s-3.51.12-5.71.12h-27.59ZM217.86,97.6c1.58,0,2.91-.03,3.99-.08,1.07-.05,1.99-.15,2.76-.28.77-.13,1.44-.32,2.03-.56.59-.24,1.19-.58,1.8-1.01,1.63-1.07,2.8-2.36,3.49-3.86.69-1.5,1.03-3.46,1.03-5.87,0-4.24-.98-7.28-2.95-9.13-1.97-1.85-5.05-2.78-9.24-2.78h-5.9c-.87,0-1.3.46-1.3,1.37v22.21h4.29ZM224.14,128.74c9.25,0,13.87-4.16,13.87-12.47,0-6.06-2.38-10.3-7.13-12.71-.82-.37-1.61-.7-2.38-.97-.77-.27-1.66-.47-2.68-.6-1.02-.13-2.24-.23-3.64-.28-1.41-.05-3.13-.08-5.17-.08h-3.45v17.94c0,3.27.82,5.62,2.45,7.04,1.63,1.42,4.34,2.13,8.12,2.13Z"/><path class="cls-1" d="M291.66,109.75h-20.46c-.87,2.2-1.61,4.14-2.22,5.83-.61,1.69-1.11,3.15-1.5,4.38-.38,1.24-.65,2.28-.8,3.14-.15.86-.23,1.56-.23,2.09,0,1.5.46,2.53,1.38,3.1.92.56,2.45.84,4.6.84v3.06h-18.62v-3.06c1.17-.16,2.18-.38,3.03-.64.84-.27,1.58-.64,2.22-1.13.64-.48,1.2-1.11,1.69-1.89.49-.78.96-1.73,1.42-2.86l19.93-52.39h3.3l17.4,45.39c1.18,3.01,2.2,5.4,3.07,7.2.87,1.8,1.71,3.15,2.53,4.06.82.91,1.7,1.5,2.64,1.77.95.27,2.08.4,3.41.4v3.14h-24.98v-3.14c2.71,0,4.57-.27,5.59-.8,1.02-.54,1.53-1.42,1.53-2.66,0-.54-.03-1.03-.08-1.49-.05-.46-.14-.95-.27-1.49-.13-.54-.31-1.14-.54-1.81-.23-.67-.52-1.46-.88-2.37l-3.14-8.69ZM272.73,105.73h17.47l-8.51-23.74-8.97,23.74Z"/><path class="cls-1" d="M369.45,132.2h-49.51v-3.06c1.79-.05,3.23-.21,4.33-.48,1.1-.27,1.95-.72,2.57-1.37s1.02-1.56,1.23-2.73c.2-1.18.31-2.71.31-4.59v-37.5c0-1.88-.09-3.39-.27-4.55s-.54-2.06-1.07-2.74c-.54-.67-1.32-1.13-2.34-1.37-1.02-.24-2.35-.41-3.99-.52v-3.06h23.3v3.06c-1.64.05-2.95.22-3.95.48-1,.27-1.76.75-2.3,1.45-.54.7-.89,1.66-1.07,2.9-.18,1.24-.27,2.87-.27,4.91v34.68c0,2.25.22,4.09.65,5.51.43,1.42,1.18,2.52,2.22,3.3,1.05.78,2.44,1.32,4.18,1.61s3.93.44,6.59.44c2.91,0,5.36-.17,7.36-.52,1.99-.35,3.67-.97,5.02-1.85,1.35-.88,2.43-2.12,3.22-3.7.79-1.58,1.47-3.63,2.03-6.16h2.91l-1.15,15.85Z"/><path class="cls-1" d="M378.18,132.2v-3.06c1.94-.05,3.51-.2,4.71-.44,1.2-.24,2.13-.7,2.8-1.37.66-.67,1.11-1.58,1.34-2.73s.34-2.7.34-4.63v-37.5c0-1.88-.09-3.39-.27-4.55-.18-1.15-.54-2.06-1.07-2.74-.54-.67-1.32-1.13-2.34-1.37-1.02-.24-2.35-.41-3.99-.52v-3.06h26.9c4.6,0,8.85.8,12.76,2.42,3.91,1.61,7.28,3.84,10.12,6.68,2.84,2.84,5.04,6.22,6.63,10.14,1.58,3.92,2.38,8.18,2.38,12.8s-.74,8.44-2.22,12.11c-1.48,3.68-3.56,6.83-6.25,9.46s-5.89,4.68-9.62,6.16c-3.73,1.48-7.82,2.21-12.26,2.21h-29.97ZM396.73,74.18c-.87,0-1.3.46-1.3,1.37v43.53c0,6.12,3.81,9.17,11.42,9.17,7,0,12.36-2.19,16.09-6.56,3.73-4.37,5.59-10.8,5.59-19.27,0-4.45-.51-8.42-1.53-11.91-1.02-3.49-2.49-6.44-4.41-8.85-1.92-2.42-4.23-4.27-6.94-5.55-2.71-1.29-5.77-1.93-9.2-1.93h-9.73Z"/><path class="cls-1" d="M507.62,120.05l11.96-34.92c.71-2.09,1.23-3.75,1.53-4.99s.46-2.31.46-3.22c0-1.39-.42-2.35-1.26-2.86-.84-.51-2.34-.76-4.48-.76v-3.06h18.62v3.06c-2.35,0-4.13.51-5.33,1.53-1.2,1.02-2.21,2.68-3.03,4.99l-19.24,53.19h-2.68l-14.71-45.79-16.32,45.79h-2.68l-15.94-46.19c-.92-2.58-1.75-4.73-2.49-6.48-.74-1.74-1.53-3.12-2.38-4.14-.84-1.02-1.8-1.74-2.87-2.17-1.07-.43-2.38-.64-3.91-.64v-3.14h24.98v3.14c-2.61,0-4.43.24-5.48.72-1.05.48-1.57,1.42-1.57,2.82,0,.7.1,1.5.31,2.42.2.91.51,1.98.92,3.22l11.65,37.26,9.43-27.84c.71-2.09,1.42-4.04,2.11-5.83.69-1.8,1.24-3.42,1.65-4.87-.72-1.56-1.37-2.84-1.95-3.86-.59-1.02-1.18-1.82-1.76-2.41-.59-.59-1.2-1.01-1.84-1.25-.64-.24-1.32-.36-2.03-.36v-3.14h23.45v3.14c-1.48,0-2.68.05-3.6.16-.92.11-1.62.28-2.11.52-.49.24-.82.58-1,1.01-.18.43-.27.94-.27,1.53,0,.8.14,1.78.42,2.94.28,1.15.68,2.61,1.19,4.39l10.27,36.13Z"/><path class="cls-1" d="M556.83,116.99c0,2.68.1,4.8.31,6.36.2,1.56.6,2.76,1.19,3.62.59.86,1.43,1.42,2.53,1.69,1.1.27,2.54.43,4.33.48v3.06h-24.83v-3.06c1.79-.05,3.23-.23,4.33-.52,1.1-.29,1.95-.84,2.57-1.65s1.02-1.94,1.23-3.42c.2-1.47.31-3.47.31-5.99v-32.67c0-2.25-.09-4.12-.27-5.59s-.54-2.64-1.07-3.5c-.54-.86-1.32-1.46-2.34-1.81-1.02-.35-2.35-.57-3.99-.68v-3.06h23.3v3.06c-1.64.05-2.95.27-3.95.64-1,.38-1.76,1.01-2.3,1.89-.54.88-.89,2.11-1.07,3.66-.18,1.56-.27,3.54-.27,5.95v31.54Z"/><path class="cls-1" d="M624.96,133.01l-36.4-50.37h-.31v34.36c0,2.68.09,4.8.27,6.36.18,1.56.54,2.76,1.07,3.62.54.86,1.3,1.42,2.3,1.69,1,.27,2.31.43,3.95.48v3.06h-20.62v-3.06c1.79-.05,3.23-.23,4.33-.52,1.1-.29,1.95-.84,2.57-1.65s1.02-1.94,1.23-3.42c.2-1.47.31-3.47.31-5.99v-32.67c0-2.25-.09-4.12-.27-5.59s-.54-2.64-1.07-3.5c-.54-.86-1.32-1.46-2.34-1.81-1.02-.35-2.35-.57-3.99-.68v-3.06h15.17l33.49,46.91h.31v-31.71c0-2.63-.09-4.73-.27-6.32-.18-1.58-.54-2.8-1.07-3.66-.54-.86-1.3-1.42-2.3-1.69-1-.27-2.31-.43-3.95-.48v-3.06h20.62v3.06c-1.79.05-3.23.23-4.33.52-1.1.3-1.95.84-2.57,1.65-.61.8-1.02,1.96-1.23,3.46-.2,1.5-.31,3.49-.31,5.95v48.12h-4.6Z"/><path class="cls-1" d="M648.87,85.05c2.35-1.88,4.02-3.66,5.02-5.35,1-1.69,1.49-3.55,1.49-5.59-.66.43-1.43.64-2.3.64-1.18,0-2.13-.41-2.87-1.25-.74-.83-1.11-1.89-1.11-3.18,0-1.45.47-2.63,1.42-3.54.94-.91,2.21-1.37,3.79-1.37,3.63,0,5.44,2.52,5.44,7.56,0,1.4-.15,2.66-.46,3.78-.31,1.13-.8,2.24-1.49,3.34s-1.62,2.23-2.8,3.38c-1.18,1.15-2.63,2.4-4.37,3.74l-1.76-2.17Z"/><path class="cls-1" d="M670.94,113.29h2.83c.36,2.42,1.04,4.59,2.03,6.52,1,1.93,2.25,3.57,3.76,4.91,1.51,1.34,3.24,2.37,5.21,3.1,1.97.72,4.1,1.09,6.4,1.09,3.78,0,6.77-.94,8.97-2.82,2.2-1.88,3.3-4.43,3.3-7.65,0-1.34-.22-2.57-.65-3.7-.43-1.13-1.16-2.21-2.18-3.26s-2.39-2.08-4.1-3.1c-1.71-1.02-3.87-2.12-6.48-3.3-3.17-1.45-5.82-2.84-7.97-4.18-2.15-1.34-3.86-2.74-5.13-4.18-1.28-1.45-2.18-2.99-2.72-4.63-.54-1.64-.8-3.5-.8-5.59,0-2.47.42-4.75,1.26-6.84.84-2.09,2.03-3.9,3.56-5.43s3.35-2.71,5.44-3.54c2.09-.83,4.39-1.25,6.9-1.25,2.25,0,4.34.38,6.28,1.13,1.94.75,3.91,1.96,5.9,3.62l1.99-3.62h1.76l.84,16.01h-2.84c-1.23-4.4-3-7.67-5.33-9.82-2.33-2.15-5.12-3.22-8.39-3.22s-5.59.8-7.43,2.41c-1.84,1.61-2.76,3.78-2.76,6.52,0,1.29.2,2.45.61,3.5.41,1.05,1.07,2.04,1.99,2.98.92.94,2.12,1.88,3.6,2.82,1.48.94,3.32,1.92,5.52,2.94,3.78,1.77,6.92,3.42,9.43,4.95,2.5,1.53,4.5,3.06,5.98,4.59,1.48,1.53,2.53,3.14,3.14,4.83.61,1.69.92,3.58.92,5.67,0,2.68-.51,5.15-1.53,7.4s-2.45,4.18-4.29,5.79-4.04,2.86-6.59,3.74c-2.56.88-5.36,1.33-8.43,1.33s-5.53-.43-7.86-1.29c-2.33-.86-4.69-2.31-7.09-4.35l-2.15,3.94h-1.76l-1.15-18.03Z"/></svg>